<svg xmlns="http://www.w3.org/2000/svg" viewBox="0 0 100 100">
  <defs>
    <linearGradient id="cubeGrad1" x1="0%" y1="0%" x2="100%" y2="100%">
      <stop offset="0%" style="stop-color:#00ffff;stop-opacity:0.8" />
      <stop offset="50%" style="stop-color:#00dddd;stop-opacity:0.6" />
      <stop offset="100%" style="stop-color:#0099ff;stop-opacity:0.4" />
    </linearGradient>
    <linearGradient id="cubeGrad2" x1="0%" y1="0%" x2="100%" y2="100%">
      <stop offset="0%" style="stop-color:#00dddd;stop-opacity:0.6" />
      <stop offset="100%" style="stop-color:#00ffff;stop-opacity:0.4" />
    </linearGradient>
    <linearGradient id="cubeGrad3" x1="0%" y1="0%" x2="100%" y2="100%">
      <stop offset="0%" style="stop-color:#0099ff;stop-opacity:0.4" />
      <stop offset="100%" style="stop-color:#00dddd;stop-opacity:0.6" />
    </linearGradient>
    <filter id="glow">
      <feGaussianBlur stdDeviation="3" result="coloredBlur"/>
      <feMerge> 
        <feMergeNode in="coloredBlur"/>
        <feMergeNode in="SourceGraphic"/>
      </feMerge>
    </filter>
  </defs>
  
  <!-- Background circle with glow -->
  <circle cx="50" cy="50" r="48" fill="url(#cubeGrad1)" filter="url(#glow)" opacity="0.3"/>
  
  <!-- 3D Cube -->
  <!-- Front face -->
  <rect x="25" y="35" width="30" height="30" fill="url(#cubeGrad1)" stroke="#00ffff" stroke-width="1" opacity="0.8"/>
  
  <!-- Top face -->
  <polygon points="25,35 40,20 70,20 55,35" fill="url(#cubeGrad2)" stroke="#00ffff" stroke-width="1" opacity="0.6"/>
  
  <!-- Right face -->
  <polygon points="55,35 70,20 70,50 55,65" fill="url(#cubeGrad3)" stroke="#00ffff" stroke-width="1" opacity="0.4"/>
  
  <!-- Cube edges with dashed lines -->
  <line x1="25" y1="35" x2="40" y2="20" stroke="#00ffff" stroke-width="1" stroke-dasharray="2,2" opacity="0.8"/>
  <line x1="55" y1="35" x2="70" y2="20" stroke="#00ffff" stroke-width="1" stroke-dasharray="2,2" opacity="0.8"/>
  <line x1="55" y1="65" x2="70" y2="50" stroke="#00ffff" stroke-width="1" stroke-dasharray="2,2" opacity="0.8"/>
  <line x1="25" y1="65" x2="40" y2="50" stroke="#00ffff" stroke-width="1" stroke-dasharray="2,2" opacity="0.8"/>
  
  <!-- Inner grid pattern -->
  <line x1="40" y1="35" x2="40" y2="65" stroke="#00ffff" stroke-width="0.5" opacity="0.6"/>
  <line x1="25" y1="50" x2="55" y2="50" stroke="#00ffff" stroke-width="0.5" opacity="0.6"/>
  
  <!-- Corner highlights -->
  <circle cx="25" cy="35" r="1.5" fill="#ffffff" opacity="0.8"/>
  <circle cx="55" cy="35" r="1.5" fill="#ffffff" opacity="0.8"/>
  <circle cx="25" cy="65" r="1.5" fill="#ffffff" opacity="0.8"/>
  <circle cx="55" cy="65" r="1.5" fill="#ffffff" opacity="0.8"/>
</svg>